<svg xmlns="http://www.w3.org/2000/svg" width="920" height="460">
<rect width="920" height="460" fill="white"/>
<text x="460.0" y="28" text-anchor="middle" font-size="20" font-family="Helvetica">Training Return Snapshot</text>
<text x="22" y="212.5" text-anchor="middle" font-size="14" font-family="Helvetica" transform="rotate(-90 22 212.5)">Episode Return</text>
<line x1="80" y1="370.0" x2="890" y2="370.0" stroke="#e5e5e5"/>
<text x="70" y="374.0" text-anchor="end" font-size="11" font-family="Helvetica">0.00</text>
<line x1="80" y1="307.0" x2="890" y2="307.0" stroke="#e5e5e5"/>
<text x="70" y="311.0" text-anchor="end" font-size="11" font-family="Helvetica">0.20</text>
<line x1="80" y1="244.0" x2="890" y2="244.0" stroke="#e5e5e5"/>
<text x="70" y="248.0" text-anchor="end" font-size="11" font-family="Helvetica">0.40</text>
<line x1="80" y1="181.0" x2="890" y2="181.0" stroke="#e5e5e5"/>
<text x="70" y="185.0" text-anchor="end" font-size="11" font-family="Helvetica">0.60</text>
<line x1="80" y1="118.0" x2="890" y2="118.0" stroke="#e5e5e5"/>
<text x="70" y="122.0" text-anchor="end" font-size="11" font-family="Helvetica">0.80</text>
<line x1="80" y1="55.0" x2="890" y2="55.0" stroke="#e5e5e5"/>
<text x="70" y="59.0" text-anchor="end" font-size="11" font-family="Helvetica">1.00</text>
<line x1="80" y1="55" x2="80" y2="370" stroke="#333"/>
<line x1="80" y1="370" x2="890" y2="370" stroke="#333"/>
<rect x="201.5" y="370.0" width="324.0" height="0.0" fill="#1f77b4"/>
<text x="485.0" y="415" text-anchor="middle" font-size="12" font-family="Helvetica">pending</text>
<rect x="740" y="55" width="12" height="12" fill="#1f77b4"/>
<text x="760" y="65" font-size="12" font-family="Helvetica">episode_return</text>
</svg>