<svg xmlns="http://www.w3.org/2000/svg" width="440" height="470">
<rect width="440" height="470" fill="white"/>
<text x="220.0" y="24" text-anchor="middle" font-size="18" font-family="Helvetica">predictive_medium_seed0_h3_main_medium_closest_collision_8: collision</text>
<line x1="40" y1="40" x2="400" y2="40" stroke="#d9d9d9"/>
<line x1="40" y1="76" x2="400" y2="76" stroke="#d9d9d9"/>
<line x1="40" y1="112" x2="400" y2="112" stroke="#d9d9d9"/>
<line x1="40" y1="148" x2="400" y2="148" stroke="#d9d9d9"/>
<line x1="40" y1="184" x2="400" y2="184" stroke="#d9d9d9"/>
<line x1="40" y1="220" x2="400" y2="220" stroke="#d9d9d9"/>
<line x1="40" y1="256" x2="400" y2="256" stroke="#d9d9d9"/>
<line x1="40" y1="292" x2="400" y2="292" stroke="#d9d9d9"/>
<line x1="40" y1="328" x2="400" y2="328" stroke="#d9d9d9"/>
<line x1="40" y1="364" x2="400" y2="364" stroke="#d9d9d9"/>
<line x1="40" y1="400" x2="400" y2="400" stroke="#d9d9d9"/>
<line x1="40" y1="40" x2="40" y2="400" stroke="#d9d9d9"/>
<line x1="76" y1="40" x2="76" y2="400" stroke="#d9d9d9"/>
<line x1="112" y1="40" x2="112" y2="400" stroke="#d9d9d9"/>
<line x1="148" y1="40" x2="148" y2="400" stroke="#d9d9d9"/>
<line x1="184" y1="40" x2="184" y2="400" stroke="#d9d9d9"/>
<line x1="220" y1="40" x2="220" y2="400" stroke="#d9d9d9"/>
<line x1="256" y1="40" x2="256" y2="400" stroke="#d9d9d9"/>
<line x1="292" y1="40" x2="292" y2="400" stroke="#d9d9d9"/>
<line x1="328" y1="40" x2="328" y2="400" stroke="#d9d9d9"/>
<line x1="364" y1="40" x2="364" y2="400" stroke="#d9d9d9"/>
<line x1="400" y1="40" x2="400" y2="400" stroke="#d9d9d9"/>
<rect x="118" y="226" width="24" height="24" fill="#bbbbbb" />
<rect x="334" y="262" width="24" height="24" fill="#bbbbbb" />
<rect x="118" y="46" width="24" height="24" fill="#bbbbbb" />
<rect x="82" y="334" width="24" height="24" fill="#bbbbbb" />
<rect x="262" y="298" width="24" height="24" fill="#bbbbbb" />
<rect x="226" y="262" width="24" height="24" fill="#bbbbbb" />
<rect x="154" y="154" width="24" height="24" fill="#2ca02c" />
<polyline points="94.0,94.0 130.0,94.0" fill="none" stroke="#d62728" stroke-width="3"/>
<circle cx="94.0" cy="94.0" r="6" fill="#1f77b4" />
<circle cx="130.0" cy="94.0" r="6" fill="#d62728" />
</svg>